<?xml version="1.0" encoding="UTF-8" standalone="no"?>
<svg
   xmlns:dc="http://purl.org/dc/elements/1.1/"
   xmlns:cc="http://creativecommons.org/ns#"
   xmlns:rdf="http://www.w3.org/1999/02/22-rdf-syntax-ns#"
   xmlns:svg="http://www.w3.org/2000/svg"
   xmlns="http://www.w3.org/2000/svg"
   xmlns:sodipodi="http://sodipodi.sourceforge.net/DTD/sodipodi-0.dtd"
   xmlns:inkscape="http://www.inkscape.org/namespaces/inkscape"
   version="1.1"
   x="0"
   y="0"
   width="2556.2529"
   height="1242.5128"
   viewBox="0 0 2556.2529 1242.5128"
   id="svg6003"
   inkscape:version="0.91 r13725"
   sodipodi:docname="warningtape.svg">
  <metadata
     id="metadata6020">
    <rdf:RDF>
      <cc:Work
         rdf:about="">
        <dc:format>image/svg+xml</dc:format>
        <dc:type
           rdf:resource="http://purl.org/dc/dcmitype/StillImage" />
        <dc:title></dc:title>
      </cc:Work>
    </rdf:RDF>
  </metadata>
  <defs
     id="defs6018" />
  <sodipodi:namedview
     pagecolor="#ffffff"
     bordercolor="#666666"
     borderopacity="1"
     objecttolerance="10"
     gridtolerance="10"
     guidetolerance="10"
     inkscape:pageopacity="0"
     inkscape:pageshadow="2"
     inkscape:window-width="1916"
     inkscape:window-height="1035"
     id="namedview6016"
     showgrid="false"
     fit-margin-top="0"
     fit-margin-left="0"
     fit-margin-right="0"
     fit-margin-bottom="0"
     inkscape:zoom="0.37907046"
     inkscape:cx="1515.8382"
     inkscape:cy="602.17184"
     inkscape:window-x="4"
     inkscape:window-y="1"
     inkscape:window-maximized="1"
     inkscape:current-layer="Layer_1" />
  <g
     id="Layer_1"
     transform="translate(129.26357,457.61597)">
    <path
       d="M 259.6,359.14 C 150.92,359.769 58.92,323.434 13.44,294.423 -0.992,285.218 4.858,286.027 6.987,283.577 8.304,282.061 19.32,320.758 8.347,276.625 7.966,275.092 7.508,245.111 5.531,196.113 l -0.205,-72.797 1.603,-5.187 c 4.693,1.708 -0.131,-9.157 0.49,-12.054 1.769,-8.249 7.15,-12.178 12.513,-18.418 26.351,-30.658 94.214,-64.731 176.14,-75.66 66.843,-8.917 142.92,-8.836 210.56,0.845 64.189,9.187 114.38,25.056 148.73,47.637 16.859,11.083 25.23,29.176 35.032,38.2 l 3.691,7.707 8.92,0.771 c 9.781,0.845 45.898,2.52 55.123,1.189 25.65,-3.703 40.638,-13.264 49.396,-28.996 7.098,-12.749 16.325,-21.765 28.118,-27.571 8.029,-3.953 1472.7086,60.26026 1479.3006,61.07326 12.012,1.482 16.0898,-0.953 20.0708,5.86 2.066,3.536 -0.801,9.895 -5.541,95.109 -0.781,14.025 -2.809,35.634 -3.428,48.559 -1.345,28.09 1.54,24.831 -0.891,26.132 -3.471,1.858 -3.827,0.613 -9.733,-5.728 -12.858,-13.802 -1460.19244,-81.06537 -1470.81544,-68.10137 -15.301,18.673 -75.36796,45.10611 -133.15296,53.18011 -14.889,2.08 -28.023,3.688 -32.035,1.921 -1.092,-0.48 -10.397,-0.396 -12.868,3.776 -1.878,3.17 -6.019,11.433 -10.609,15.875 -49.097,47.503 -161.2,68.924 -296.34,69.705 z M 364.28,183.47 c 32.248,-3.006 82.684,-11.264 85.845,-13.919 0.43,-0.361 -11.502,-9.968 -16.332,-11.442 -27.519,-8.399 -61.075,-10.15 -122.96,-10.16 -54.235,-0.008 -111.83,3.476 -174.92,9.474 -4.016,0.381 -6.941,7.644 -1.644,5.397 1.141,5.454 17.722,8.948 32.504,11.899 23.558,4.703 57.68,8.439 84.797,10.105 22.063,1.356 92.621,0.518 112.71,-1.354 z"
       id="path6006"
       inkscape:connector-curvature="0"
       style="fill:#f2d94c;fill-opacity:1"
       sodipodi:nodetypes="sccccccccssscccccccccsccsccccsccccccscc" />
    <path
       d="M 250.07,361.21 C 174.926,357.415 118.53,346.842 68.07,327.087 45.068,318.083 24.808,306.196 11.237,293.743 l -6.833,-6.27 0.561,-5.585 c 0.308,-3.072 0.643,-6.261 0.744,-7.086 0.1,-0.825 -0.174,-37.32 -0.609,-81.099 -0.787,-79.091 -0.78,-79.602 1.208,-80.122 1.595,-0.417 2.148,-1.712 2.734,-6.4 4.515,-36.14 60.822,-70.584 145.03,-88.717 16.781,-3.614 22.788,-4.672 46,-8.107 54.678,-8.09 133,-8.492 194.5,-1 44.154,5.38 89.91,16.2 120,28.378 41.624,16.846 67.798,37.197 76.973,59.847 2.196,5.421 3.208,6.775 5.603,7.495 1.608,0.483 13.192,1.13 25.743,1.438 25.628,0.63 39.113,-0.487 52.503,-4.347 16.134,-4.652 21.58,-8.646 29.178,-21.397 6.517,-10.936 16.768,-22.313 25.15,-27.911 3.32,-2.217 9.617,-5.162 13.994,-6.545 13.954,-4.408 1469.1794,60.27074 1482.2134,68.33274 10.318,6.381 7.3186,-0.12672 5.7326,26.68928 -0.699,11.825 -1.755,31.175 -2.347,43 -3.576,71.486 -5.431,101.65 -6.32,102.75 -1.905,2.363 -4.276,1.227 -10.127,-4.854 -6.373,-6.622 -1455.669,-67.40702 -1461.23,-67.42302 -5.397,-0.015 -10.969,3.349 -18.848,11.379 -7.351,7.492 -15.823,13.227 -26.757,18.114 -32.858,14.686 -79.042,25.777 -113.16,27.173 -12.974,0.531 -15.557,0.387 -17.645,-0.981 -2.439,-1.598 -2.459,-1.582 -6.277,5.101 -9.839,17.223 -36.244,36.904 -66.227,49.365 -42.229,17.55 -95.366,29.132 -157.65,34.364 -16.903,1.42 -79.57,2.662 -95,1.883 z m 81.5,-7.363 c 5.225,-0.546 14.45,-1.252 20.5,-1.568 6.05,-0.316 11.688,-0.776 12.528,-1.023 0.84,-0.246 3.974,-0.651 6.963,-0.899 5.022,-0.417 12.406,-1.591 29.009,-4.612 3.575,-0.65 7.625,-1.276 9,-1.39 3.046,-0.253 9.123,-1.335 14.5,-2.583 33.06,-7.674 54.007,-13.976 71.625,-21.551 3.093,-1.33 5.966,-2.419 6.384,-2.419 1.965,0 23.011,-11.365 31.491,-17.005 11.905,-7.918 20.082,-14.976 24.806,-21.412 7.057,-9.613 8.14,-12.692 10.232,-29.084 1.602,-12.553 3.764,-27.894 4.934,-35 0.543,-3.3 2.351,-16.876 4.018,-30.17 1.668,-13.293 3.477,-26.517 4.021,-29.386 0.544,-2.869 0.99,-5.683 0.99,-6.253 0,-0.571 -3.542,2.303 -7.871,6.386 -4.329,4.083 -10.291,9.277 -13.25,11.543 -8.702,6.663 -26.294,16.018 -45.379,24.128 -13.039,5.541 -52.25,17.427 -63.5,19.249 -5.572,0.902 -6.4,1.062 -18,3.477 -11.114,2.314 -17.212,3.399 -25.5,4.538 -4.4,0.605 -9.309,1.303 -10.909,1.551 -6.628,1.029 -45.964,4.396 -57.091,4.887 -31.157,1.376 -40.896,1.458 -66.5,0.56 -27.567,-0.968 -44.527,-2.419 -72.5,-6.205 -20.113,-2.722 -25.017,-3.471 -31.5,-4.812 -5.844,-1.209 -6.434,-1.323 -15,-2.901 -3.025,-0.557 -8.875,-1.892 -13,-2.967 -4.125,-1.075 -10.65,-2.731 -14.5,-3.68 -3.85,-0.948 -11.835,-3.461 -17.745,-5.584 -5.91,-2.123 -11.364,-3.86 -12.121,-3.86 -3.284,0 -36.929,-15.783 -46.634,-21.875 -13.613,-8.547 -25.978,-19.425 -32.265,-28.388 -2.224,-3.17 -4.266,-5.54 -4.539,-5.267 -0.674,0.675 -0.354,86.388 0.452,120.88 l 0.65,27.848 2.601,2.435 c 5.444,5.095 24.937,17.255 36.458,22.743 14.866,7.08 47.552,18.432 65.143,22.622 24.979,5.95 30.632,7.154 35.5,7.557 1.375,0.114 5.2,0.705 8.5,1.312 15.808,2.907 30.767,5.202 31.186,4.784 0.256,-0.256 1.772,-0.09 3.37,0.368 1.598,0.458 8.651,1.115 15.675,1.459 7.023,0.344 13.669,0.894 14.768,1.222 6.37,1.899 85.09,2.166 102.5,0.347 z m 271.5,-90.189 c 9.339,-0.989 29.402,-4.308 35.5,-5.873 1.925,-0.494 5.975,-1.427 9,-2.073 9.542,-2.036 42.997,-12.386 47.752,-14.772 0.961,-0.482 3.998,-1.879 6.748,-3.103 9.676,-4.31 21.068,-11.98 27.5,-18.515 9.147,-9.294 13.27,-11.519 21.345,-11.519 7.32,0 1455.342,58.80602 1461.342,63.55802 2.068,1.638 3.979,2.978 4.246,2.978 0.478,0 1.269,-11.729 2.26,-33.5 0.653,-14.358 1.87,-36.31901 4.619,-83.387 l 5.2964,-31.66728 -2.948,-2.458 c -4.554,-3.8 -14.365,-7.99 -20.448,-8.733 C 2196.1664,113.47974 740.839,53.743 730.995,61.143 c -8.883,6.676 -16.163,15.313 -21.513,25.52 -1.818,3.47 -5.403,8.184 -7.966,10.475 -4.52,4.041 -14.862,9.803 -19.947,11.113 -1.375,0.354 -4.931,1.31 -7.903,2.125 -14.016,3.843 -43.932,5.39 -67.097,3.47 -5.775,-0.479 -10.667,-0.705 -10.871,-0.502 -0.204,0.202 -0.483,4.326 -0.621,9.164 -0.231,8.175 -3.32,33.289 -5.508,44.796 -0.523,2.75 -1.213,8.241 -1.532,12.204 -0.319,3.962 -0.992,8.638 -1.495,10.392 -0.503,1.753 -0.719,3.505 -0.48,3.892 0.239,0.387 -0.003,3.136 -0.538,6.108 -1.479,8.206 -2.533,15.544 -5.373,37.404 -3.635,27.98 -3.628,25.804 -0.082,26.617 4.165,0.955 12.389,0.861 23,-0.263 z m -266,-79.887 c 35.991,-1.987 61.515,-5.145 94,-11.631 12.473,-2.491 15.598,-3.572 14.242,-4.928 -1.408,-1.407 -18.183,-6.427 -29.325,-8.776 -45.764,-9.644 -138.74,-10.253 -243.42,-1.593 -32.854,2.718 -46,4.152 -46,5.02 0,2.335 40.979,11.75 69.479,15.963 41.131,6.079 96.39,8.409 141.02,5.945 z"
       id="path6008"
       inkscape:connector-curvature="0"
       style="fill:#efd74d;fill-opacity:1"
       sodipodi:nodetypes="ccscccccccccscccccccccccccsscscsscccsccccccsscsccsssccccccccsccscsscccccccscccsscccccccccscscsccccccccccccccscscccccccssccc" />
    <path
       d="M 251.07,361.21 C 181.436,357.689 125.21,347.879 78.57,331.116 64.462,326.045 43.53,316.257 33.07,309.84 24.17,304.38 10.637,293.859 7.088,289.642 4.606,286.692 4.421,285.93 5.08,281.348 6.142,273.965 6.144,273.05 5.217,190.642 4.385,116.64 4.408,114.959 6.284,113.956 c 1.361,-0.729 2.279,-3 3.167,-7.84 2.474,-13.479 11.414,-26.743 25.894,-38.422 11.299,-9.112 17.979,-13.233 34.725,-21.42 43.586,-21.307 101.84,-34.681 177,-40.64 20.882,-1.655 88.131,-1.654 109,0.002 75.121,5.96 133.3,19.323 177,40.65 22.957,11.205 37.368,21.516 48.04,34.374 5.273,6.352 11.46,17.416 11.46,20.492 0,0.882 1.151,2.358 2.557,3.279 2.155,1.412 6.361,1.751 26.797,2.158 33.499,0.667 48.953,-1.323 64.146,-8.259 9.273,-4.233 12.708,-7.317 17.688,-15.88 10.847,-18.65 22.802,-29.819 37.925,-35.434 15.606,-5.794 1479.8195,56.61302 1491.1955,67.46602 l 4.275,4.079 -0.01,7.421 c 0,4.082 -1.102,27.446 -2.438,51.921 -1.336,24.475 -3.159,58.9 -4.052,76.5 -0.892,17.6 -2.036,33.012 -2.54,34.25 -1.465,3.591 -3.811,2.678 -10.351,-4.025 C 2208.1575,274.78302 752.034,212.461 744.27,216.443 c -1.76,0.902 -7.333,5.582 -12.383,10.399 -8.128,7.752 -10.713,9.513 -22.5,15.332 -30.347,14.98 -81.41,27.851 -116.34,29.323 -11.821,0.498 -14.518,0.334 -17.182,-1.043 l -3.16,-1.634 -3.194,5.581 c -24.666,43.111 -110.32,75.446 -224.94,84.913 -17.419,1.439 -78.17,2.669 -93.5,1.894 z m 75.017,-6.428 c 90.537,-5.781 163.89,-24.771 208.98,-54.104 11.303,-7.352 25.286,-21.629 29.263,-29.877 2.896,-6.008 3.519,-9.374 8.228,-44.499 2.802,-20.9 6.26,-46.678 7.684,-57.285 1.424,-10.607 2.303,-19.571 1.953,-19.92 -0.349,-0.35 -4.12,2.732 -8.381,6.848 -12.574,12.148 -27.564,21.738 -48.519,31.043 -94.989,42.179 -262.85,50.954 -386.58,20.209 C 96.86,196.796 63.294,182.643 40.858,165.934 32.616,159.796 20.112,147.23 16.994,141.951 c -1.023,-1.732 -2.276,-3.149 -2.784,-3.149 -0.562,0 -0.656,29.232 -0.241,74.75 l 0.682,74.75 4.179,3.834 c 9.599,8.803 32.02,21.429 52.481,29.552 43.392,17.227 101.55,28.845 165.25,33.01 18.453,1.206 71.162,1.256 89.517,0.084 z m 296.48,-93.465 c 29.89,-5.161 61.335,-14.318 80.686,-23.498 12.85,-6.096 17.969,-9.627 26.299,-18.14 7.533,-7.7 15.143,-11.85 21.754,-11.866 5.414,-0.013 1459.6925,62.01102 1464.7095,65.98502 4.945,3.916 5.922,3.895 6.553,-0.143 0.28,-1.788 2.225,-36.496 4.323,-77.129 2.748,-53.225 3.521,-74.472 2.765,-76 -0.578,-1.167 -4.586,-3.921 -8.909,-6.121 C 2213.2795,110.60402 765.852,51.303 757.185,51.307 c -8.41,0.004 -9.702,0.284 -16.619,3.604 -12.642,6.067 -21.218,14.494 -30.315,29.787 -9.157,15.395 -20.256,22.119 -44.185,26.77 -6.981,1.357 -14.384,1.759 -33,1.792 -13.2,0.024 -27.15,-0.182 -31,-0.457 l -7,-0.5 -0.649,11 c -0.357,6.05 -4.26,37.325 -8.674,69.5 -9.74,71.004 -9.565,69.563 -8.642,71.056 1.244,2.014 27.622,0.539 45.466,-2.542 z m -262.5,-43.457 c 74.373,-7.012 128.25,-19.696 170,-40.019 26.822,-13.058 45.606,-28.181 52.213,-42.038 7.93,-16.632 8.193,-25.693 1.16,-40 C 566.919,62.195 504.488,33.252 417.57,18.905 381.349,12.926 356.769,10.848 313.57,10.113 258.092,9.169 213.5,12.965 164.57,22.797 87.415,38.3 35.04,64.849 19.42,96.377 c -4.219,8.513 -4.348,9.059 -4.344,18.35 0.003,7.965 0.413,10.501 2.436,15.076 8.23,18.604 26.156,34.042 56.267,48.457 46.476,22.249 110.54,36.028 190.29,40.931 11.604,0.713 85.127,-0.307 96,-1.332 z m -100.5,-28.04 C 165.646,185.087 90.947,164.899 64.407,137.075 56.171,128.44 54.18,124.03 54.127,114.303 54.072,104.208 56.283,99.049 64.239,90.708 c 24.5,-25.686 86.876,-44.234 173.33,-51.543 28.425,-2.403 91.357,-2.398 120,0.01 71.854,6.039 128.43,20.211 159.15,39.863 8.908,5.698 18.449,15.255 21.565,21.6 3.962,8.068 3.962,18.262 0,26.331 -3.116,6.344 -12.657,15.901 -21.565,21.599 -31.175,19.942 -91.629,34.8 -163.65,40.22 -19.2,1.444 -73.435,2.043 -93.5,1.032 z m 79.5,-6.035 c 9.35,-0.549 23.75,-1.668 32,-2.486 30.426,-3.017 73.387,-10.631 74.222,-13.154 0.769,-2.323 -21.142,-8.826 -39.722,-11.79 -21.848,-3.485 -40.924,-4.708 -82,-5.254 -53.21,-0.708 -96.515,1.075 -164,6.752 -28.097,2.364 -33,2.958 -33,3.998 0,1.138 7.424,3.42 24,7.378 32.318,7.717 66.219,12.253 111.5,14.919 12.926,0.761 61.787,0.53 77,-0.363 z m 127.87,-20.463 c 27.712,-8.4 51.263,-20.501 60.605,-31.141 14.773,-16.826 8.689,-34.49 -17.18,-49.879 -30.369,-18.066 -87.422,-31.866 -155.79,-37.681 -20.481,-1.742 -94.359,-1.756 -114,-0.022 -64.365,5.684 -111.6,16.175 -145.71,32.362 -28.679,13.612 -40.455,30.215 -32.916,46.407 4.092,8.788 11.018,15.245 24.563,22.902 9.682,5.473 22.189,10.697 23.964,10.011 6.438,-2.489 96.135,-9.451 149.09,-11.572 32.51,-1.302 94.715,-0.712 115,1.091 19.32,1.717 39.339,4.785 52.25,8.009 12.81,3.198 26.062,8.759 27.058,11.355 0.346,0.901 0.842,1.639 1.102,1.639 0.261,0 5.642,-1.567 11.958,-3.481 z"
       id="path6010"
       style="fill:#20232f;fill-opacity:1"
       inkscape:connector-curvature="0"
       sodipodi:nodetypes="ccsccsccccccccscsccccccsccccccccccccccccssccscssssccscccssccccscccccccscsccsccssssscccscccccssscccccccccsccccsssccssscccccscccscc" />
    <path
       d="m 454.44,165.9 c -0.649,-1.239 -2.102,-2.561 -3.958,-3.599 -4.529,-2.532 -14.846,-6.323 -22.754,-8.36 -12.89,-3.32 -35.426,-6.773 -54.358,-8.331 -11.617,-0.955 -28.559,-1.414 -59.102,-1.599 -36.499,-0.222 -55.112,0.282 -91.665,2.484 -4.584,0.277 -8.593,0.503 -8.911,0.504 l -0.576,0.002 0,-49.743 c 0,-27.359 0.033,-49.743 0.074,-49.743 0.04,0 3.184,-0.344 6.987,-0.764 24.1,-2.665 31.312,-3.017 66.656,-3.252 30.832,-0.205 56.205,0.287 68.717,1.333 64.206,5.365 121.11,18.796 151.59,35.779 19.789,11.026 29.42,23.281 28.019,35.653 -0.868,7.662 -5.965,15.46 -14.247,21.799 -13.659,10.453 -36.724,20.569 -64.164,28.142 l -1.878,0.518 z"
       id="path6012"
       inkscape:connector-curvature="0"
       style="fill:#cacaca" />
    <path
       d="m 107.31,155.63 c -6.183,-1.861 -17.659,-7.407 -25.665,-12.403 -10.448,-6.521 -16.644,-12.949 -19.882,-20.625 -1.489,-3.53 -1.74,-4.824 -1.733,-8.929 0.005,-3.313 0.083,-3.969 0.71,-6.025 4.777,-15.651 25.734,-29.63 62.595,-41.751 22.672,-7.456 50.863,-13.356 84.721,-17.732 2.739,-0.354 5.031,-0.592 5.094,-0.529 0.063,0.063 0.028,22.442 -0.077,49.732 l -0.192,49.617 -1.056,0.133 c -0.58,0.074 -3.998,0.315 -7.594,0.536 -38.844,2.389 -87.625,6.752 -93.074,8.324 -1.228,0.355 -1.637,0.318 -3.848,-0.347 z"
       id="path6014"
       inkscape:connector-curvature="0"
       style="fill:#bababa" />
    <path
       style="fill:#1a1a1a;fill-rule:evenodd;stroke:#000000;stroke-width:1px;stroke-linecap:butt;stroke-linejoin:miter;stroke-opacity:1"
       d="m 48.780488,314.2305 60.975612,-117.07317 45.12195,12.19512 57.31707,6.09756 -71.95122,130.48781 -64.634144,-19.5122 z"
       id="path6022"
       inkscape:connector-curvature="0"
       sodipodi:nodetypes="ccccccc" />
    <path
       inkscape:connector-curvature="0"
       id="path6024"
       d="m 245.12195,355.69391 64.63415,-131.70732 60.97561,-1.21951 56.09755,-13.41464 -60.97561,146.34147 -49.99999,-1.21952 z"
       style="fill:#1a1a1a;fill-rule:evenodd;stroke:#000000;stroke-width:1px;stroke-linecap:butt;stroke-linejoin:miter;stroke-opacity:1"
       sodipodi:nodetypes="ccccccc" />
    <path
       style="fill:#000000;fill-rule:evenodd;stroke:#000000;stroke-width:1px;stroke-linecap:butt;stroke-linejoin:miter;stroke-opacity:1"
       d="M 9.7560976,252.03538 41.463415,164.2305 17.073171,139.84026 6.097561,127.64513 8.5365854,184.96221 Z"
       id="path6026"
       inkscape:connector-curvature="0" />
    <path
       sodipodi:nodetypes="ccccccc"
       style="fill:#1a1a1a;fill-rule:evenodd;stroke:#000000;stroke-width:1px;stroke-linecap:butt;stroke-linejoin:miter;stroke-opacity:1"
       d="m 443.90243,342.27928 57.31708,-150 20.73171,-8.53659 53.65852,-35.36585 -32.92683,148.78049 -48.78047,30.4878 z"
       id="path6028"
       inkscape:connector-curvature="0" />
    <path
       sodipodi:nodetypes="ccccccc"
       inkscape:connector-curvature="0"
       id="path6030"
       d="m 613.41463,267.88904 41.46342,-156.09756 47.56098,-18.292685 c 11.82044,-20.604393 25.21835,-32.459915 40.2439,-40.243904 l -30.48781,187.804879 -40.2439,15.85366 z"
       style="fill:#1a1a1a;fill-rule:evenodd;stroke:#000000;stroke-width:1px;stroke-linecap:butt;stroke-linejoin:miter;stroke-opacity:1" />
    <path
       sodipodi:nodetypes="ccccccc"
       inkscape:connector-curvature="0"
       id="path6032"
       d="m 791.46342,213.01099 68.29268,-159.756098 32.92683,-10e-7 76.82926,7.317072 -67.07317,157.317077 -64.63414,-3.65854 z"
       style="fill:#1a1a1a;fill-rule:evenodd;stroke:#000000;stroke-width:1px;stroke-linecap:butt;stroke-linejoin:miter;stroke-opacity:1" />
    <path
       style="fill:#1a1a1a;fill-rule:evenodd;stroke:#000000;stroke-width:1px;stroke-linecap:butt;stroke-linejoin:miter;stroke-opacity:1"
       d="m 1856.0976,256.91343 68.2926,-159.756099 32.9269,-10e-7 76.8292,7.31707 -67.0731,157.31708 -64.6342,-3.65854 z"
       id="path6034"
       inkscape:connector-curvature="0"
       sodipodi:nodetypes="ccccccc" />
    <path
       sodipodi:nodetypes="ccccccc"
       inkscape:connector-curvature="0"
       id="path6036"
       d="m 2053.6586,269.10855 68.2926,-159.7561 32.9269,0 c 26.0624,2.28812 59.422,2.14387 76.8292,7.31707 L 2164.6342,273.9866 2100,270.32806 Z"
       style="fill:#1a1a1a;fill-rule:evenodd;stroke:#000000;stroke-width:1px;stroke-linecap:butt;stroke-linejoin:miter;stroke-opacity:1" />
    <g
       transform="matrix(0.72184133,0.03229229,-0.44336116,1.3655118,0,0)"
       style="font-style:normal;font-weight:normal;font-size:115.83773041px;line-height:125%;font-family:sans-serif;letter-spacing:0px;word-spacing:0px;fill:#000000;fill-opacity:1;stroke:none;stroke-width:1px;stroke-linecap:butt;stroke-linejoin:miter;stroke-opacity:1"
       id="text6038">
      <path
         d="m 1731.4064,69.43173 q 0,11.76477 -5.3733,21.097399 -5.3733,9.276069 -13.5747,14.253471 -6.1652,3.73305 -13.5182,5.20365 -7.353,1.47059 -17.4209,1.47059 l -29.6948,0 0,-84.219908 30.5432,0 q 10.2942,0 17.7603,1.753403 7.4661,1.696842 12.5566,4.86428 8.7105,5.316771 13.6879,14.366593 5.0339,8.993262 5.0339,21.210522 z m -22.4548,-0.169684 q 0,-8.314525 -3.0544,-14.196909 -2.9977,-5.938946 -9.5588,-9.276069 -3.3372,-1.64028 -6.844,-2.205894 -3.4502,-0.622175 -10.4638,-0.622175 l -5.4865,0 0,52.715217 5.4865,0 q 7.7489,0 11.3688,-0.678737 3.6199,-0.735298 7.0702,-2.601824 5.9389,-3.393683 8.7104,-9.049822 2.7716,-5.712701 2.7716,-14.083787 z"
         id="path6049"
         inkscape:connector-curvature="0" />
      <path
         d="m 1829.8798,69.375169 q 0,20.135855 -11.5385,32.013751 -11.5385,11.82133 -31.9006,11.82133 -20.3056,0 -31.8441,-11.82133 -11.5385,-11.877896 -11.5385,-32.013751 0,-20.30554 11.5385,-32.070309 11.5385,-11.821331 31.8441,-11.821331 20.2489,0 31.844,11.821331 11.5951,11.764769 11.5951,32.070309 z m -28.7897,21.323645 q 3.1674,-3.846175 4.6946,-9.049823 1.5271,-5.26021 1.5271,-12.330384 0,-7.579226 -1.7534,-12.895997 -1.7534,-5.316771 -4.5815,-8.597331 -2.8846,-3.393684 -6.6742,-4.920842 -3.7331,-1.527157 -7.8055,-1.527157 -4.129,0 -7.8055,1.470596 -3.6199,1.470596 -6.6742,4.86428 -2.8281,3.167438 -4.638,8.767015 -1.7534,5.543017 -1.7534,12.895998 0,7.522665 1.6968,12.839436 1.7534,5.260209 4.5815,8.597331 2.828,3.337122 6.6177,4.920841 3.7896,1.583719 7.9751,1.583719 4.1856,0 7.9752,-1.583719 3.7896,-1.64028 6.6177,-5.033963 z"
         style="font-style:normal;font-variant:normal;font-weight:bold;font-stretch:normal;font-family:sans-serif;-inkscape-font-specification:'sans-serif Bold'"
         id="path6051"
         inkscape:connector-curvature="0" />
      <path
         d="m 1962.7991,111.45684 -20.9277,0 -35.7468,-57.805738 0,57.805738 -19.9096,0 0,-84.219908 25.9616,0 30.7129,48.246867 0,-48.246867 19.9096,0 0,84.219908 z"
         style="font-style:normal;font-variant:normal;font-weight:bold;font-stretch:normal;font-family:sans-serif;-inkscape-font-specification:'sans-serif Bold'"
         id="path6053"
         inkscape:connector-curvature="0" />
      <path
         d="m 2066.3064,69.375169 q 0,20.135855 -11.5385,32.013751 -11.5385,11.82133 -31.9006,11.82133 -20.3056,0 -31.8441,-11.82133 -11.5385,-11.877896 -11.5385,-32.013751 0,-20.30554 11.5385,-32.070309 11.5385,-11.821331 31.8441,-11.821331 20.249,0 31.844,11.821331 11.5951,11.764769 11.5951,32.070309 z m -28.7897,21.323645 q 3.1674,-3.846175 4.6946,-9.049823 1.5271,-5.26021 1.5271,-12.330384 0,-7.579226 -1.7534,-12.895997 -1.7534,-5.316771 -4.5814,-8.597331 -2.8847,-3.393684 -6.6743,-4.920842 -3.733,-1.527157 -7.8055,-1.527157 -4.1289,0 -7.8054,1.470596 -3.62,1.470596 -6.6743,4.86428 -2.828,3.167438 -4.638,8.767015 -1.7534,5.543017 -1.7534,12.895998 0,7.522665 1.6968,12.839436 1.7534,5.260209 4.5815,8.597331 2.8281,3.337122 6.6177,4.920841 3.7896,1.583719 7.9751,1.583719 4.1856,0 7.9752,-1.583719 3.7896,-1.64028 6.6177,-5.033963 z"
         style="font-style:normal;font-variant:normal;font-weight:bold;font-stretch:normal;font-family:sans-serif;-inkscape-font-specification:'sans-serif Bold'"
         id="path6055"
         inkscape:connector-curvature="0" />
      <path
         d="m 2148.9426,43.526613 -26.301,0 0,67.930227 -21.7196,0 0,-67.930227 -26.301,0 0,-16.289681 74.3216,0 0,16.289681 z"
         style="font-style:normal;font-variant:normal;font-weight:bold;font-stretch:normal;font-family:sans-serif;-inkscape-font-specification:'sans-serif Bold'"
         id="path6057"
         inkscape:connector-curvature="0" />
      <path
         d="m 2262.5179,111.45684 -60.9166,0 0,-84.219908 60.9166,0 0,16.289681 -39.3102,0 0,14.536277 36.4821,0 0,16.289681 -36.4821,0 0,20.814592 39.3102,0 0,16.289677 z"
         style="font-style:normal;font-variant:normal;font-weight:bold;font-stretch:normal;font-family:sans-serif;-inkscape-font-specification:'sans-serif Bold'"
         id="path6059"
         inkscape:connector-curvature="0" />
      <path
         d="m 2357.3713,111.45684 -20.9277,0 -35.7468,-57.805738 0,57.805738 -19.9096,0 0,-84.219908 25.9617,0 30.7128,48.246867 0,-48.246867 19.9096,0 0,84.219908 z"
         style="font-style:normal;font-variant:normal;font-weight:bold;font-stretch:normal;font-family:sans-serif;-inkscape-font-specification:'sans-serif Bold'"
         id="path6061"
         inkscape:connector-curvature="0" />
      <path
         d="m 2444.8718,43.526613 -26.301,0 0,67.930227 -21.7196,0 0,-67.930227 -26.301,0 0,-16.289681 74.3216,0 0,16.289681 z"
         style="font-style:normal;font-variant:normal;font-weight:bold;font-stretch:normal;font-family:sans-serif;-inkscape-font-specification:'sans-serif Bold'"
         id="path6063"
         inkscape:connector-curvature="0" />
      <path
         d="m 2518.8541,111.45684 -60.9166,0 0,-84.219908 60.9166,0 0,16.289681 -39.3101,0 0,14.536277 36.4821,0 0,16.289681 -36.4821,0 0,20.814592 39.3101,0 0,16.289677 z"
         style="font-style:normal;font-variant:normal;font-weight:bold;font-stretch:normal;font-family:sans-serif;-inkscape-font-specification:'sans-serif Bold'"
         id="path6065"
         inkscape:connector-curvature="0" />
      <path
         d="m 2584.3522,53.028927 q 0,-3.167438 -1.3009,-5.429894 -1.3009,-2.262456 -4.4684,-3.563368 -2.2059,-0.904982 -5.1471,-1.074666 -2.9411,-0.226246 -6.8439,-0.226246 l -7.862,0 0,22.681118 6.6742,0 q 5.2037,0 8.7105,-0.509052 3.5068,-0.509053 5.8824,-2.319017 2.2624,-1.753403 3.2805,-3.846175 1.0747,-2.149333 1.0747,-5.7127 z m 33.8803,58.427913 -26.5273,0 -22.9639,-30.882516 -10.0114,0 0,30.882516 -21.6065,0 0,-84.219908 36.4256,0 q 7.4661,0 12.8394,0.848421 5.3733,0.848421 10.0679,3.67649 4.7512,2.82807 7.5227,7.352981 2.8281,4.46835 2.8281,11.255717 0,9.33263 -4.3553,15.215015 -4.2986,5.882384 -12.3303,9.78512 l 28.111,36.086164 z"
         style="font-style:normal;font-variant:normal;font-weight:bold;font-stretch:normal;font-family:sans-serif;-inkscape-font-specification:'sans-serif Bold'"
         id="path6067"
         inkscape:connector-curvature="0" />
    </g>
    <path
       style="fill:#1a1a1a;fill-rule:evenodd;stroke:#000000;stroke-width:1px;stroke-linecap:butt;stroke-linejoin:miter;stroke-opacity:1"
       d="m 976.82927,220.32806 68.29273,-159.756095 32.9268,-10e-7 76.8292,7.317072 -67.0731,157.317074 -64.6342,-3.65854 z"
       id="path6046"
       inkscape:connector-curvature="0"
       sodipodi:nodetypes="ccccccc" />
  </g>
</svg>
